<?xml version="1.0" standalone="no"?>
<!DOCTYPE svg PUBLIC "-//W3C//DTD SVG 20010904//EN"
 "http://www.w3.org/TR/2001/REC-SVG-20010904/DTD/svg10.dtd">
<svg version="1.0" xmlns="http://www.w3.org/2000/svg"
 width="100.000000pt" height="100.000000pt" viewBox="0 0 100.000000 100.000000"
 preserveAspectRatio="xMidYMid meet">
<metadata>
Created by potrace 1.11, written by Peter Selinger 2001-2013
</metadata>
<g transform="translate(0.000000,100.000000) scale(0.100000,-0.100000)"
fill="#000000" stroke="none">
<path d="M377 970 c-105 -37 -177 -95 -232 -186 -61 -100 -66 -136 -67 -405 0
-145 4 -245 9 -250 12 -12 47 17 38 31 -6 10 39 56 85 86 38 25 135 56 144 47
3 -4 6 -66 6 -140 0 -111 3 -135 15 -140 9 -3 19 -2 23 2 4 3 7 133 8 288 0
200 4 289 13 305 38 71 154 72 192 1 6 -12 13 -52 15 -90 4 -83 22 -121 75
-156 95 -63 223 -9 247 103 10 50 7 133 -9 198 -23 97 -101 206 -189 261 -101
64 -262 83 -373 45z m245 -41 c53 -14 103 -40 146 -76 l33 -28 -18 -55 c-12
-37 -33 -71 -65 -104 l-48 -50 -34 37 c-19 21 -48 42 -65 48 -22 8 -31 17 -31
33 0 32 -28 107 -48 131 -9 11 -30 30 -46 42 -29 23 -27 27 19 36 32 5 111 -1
157 -14z m-322 -167 c42 -32 77 -71 85 -94 3 -9 -1 -31 -9 -47 -10 -18 -16
-56 -16 -94 l0 -64 -75 -1 c-62 0 -82 -4 -119 -26 l-43 -25 3 110 c3 123 12
161 57 236 28 48 32 51 56 41 14 -5 42 -21 61 -36z m605 -243 c-4 -72 -24
-105 -73 -126 -32 -13 -42 -14 -77 -2 -39 14 -89 71 -82 93 2 6 33 18 70 27
36 9 86 28 109 42 24 15 46 26 50 27 3 0 5 -27 3 -61z"/>
<path d="M80 35 c0 -18 24 -30 39 -21 16 10 1 36 -20 36 -10 0 -19 -7 -19 -15z"/>
</g>
</svg>
